<svg width="367" height="683" viewBox="0 0 367 683" fill="none" xmlns="http://www.w3.org/2000/svg">
<path d="M-103.012 114.114C-109.584 160.154 -101.564 240.512 -185.674 314.138C-267.829 386.052 -133.852 140.323 -34.2149 138.152C82.2542 135.615 -175.918 542.46 -173.398 452.522C-171.988 402.205 29.6991 165.835 69.8367 215.598C120.897 278.903 -78.2999 570.425 -113.625 560.121C-175.944 541.942 103.072 213.731 163.198 254.012C234.895 302.043 72.7174 531.13 11.9447 535.984C-36.6736 539.868 173.207 325.382 282.944 396.991" stroke="black" stroke-width="8" stroke-linecap="round"/>
<path d="M294.138 378.267C295.521 376.564 298.24 378.006 297.606 380.106L296.251 384.588C295.866 385.861 296.809 387.149 298.139 387.166L315.467 387.396C317.632 387.424 318.214 390.393 316.221 391.237L302.853 396.899C301.32 397.548 301.204 399.675 302.658 400.487L310.555 404.895C312.315 405.878 311.681 408.552 309.667 408.64L303.925 408.889C302.699 408.942 301.81 410.075 302.05 411.278L302.988 415.976C303.341 417.742 301.363 419.038 299.885 418.01L293.07 413.273C291.556 412.22 289.545 413.604 289.987 415.395L292.484 425.503C292.996 427.576 290.338 428.901 288.991 427.245L279.43 415.489C278.894 414.831 278.003 414.582 277.204 414.868L263.945 419.61C261.937 420.328 260.349 417.824 261.856 416.314L270.175 407.978C270.951 407.2 270.954 405.94 270.181 405.159L259.45 394.31C258.103 392.948 259.258 390.653 261.155 390.924L270.729 392.29C271.705 392.43 272.638 391.836 272.925 390.893L275.908 381.086C276.506 379.121 279.323 379.226 279.773 381.231L281.458 388.749C281.823 390.38 283.909 390.869 284.962 389.572L294.138 378.267Z" fill="#CD4631"/>
</svg>
